PathFileType	4	(X/Y/Z)	/Users/itak/Documents/Research/Walk-IL/dataset/trc/00302_00010.trc
DataRate	CameraRate	NumFrames	NumMarkers	Units	OrigDataRate	OrigDataStartFrame	OrigNumFrames
100.000000	100.000000	4	55	mm	100.000000	49	395
Frame#	Time	RPSI			LPSI			L3			STRN			T10			C7			CLAV			RBAK			LBAK			LSHO			LUPA			LAEL			LAOL			LWPS			LFRA			LIFD			LHPS			LHTS			RSHO			RUPA			RAEL			RAOL			RWTS			RWPS			RFRA			RIFD			RHPS			RBHD			LFHD			RFHD			LBHD			LHIP			RHIP			RASI			LASI			LKNE			LTHI			LANK			LTIP			LTOE			LMT1			LMT5			LHEE			RKNE			RTHI			RTIP			RTOE			RMT1			RMT5			RHEE			LWTS			RHTS			RANK			*53			*54			
		X1	Y1	Z1	X2	Y2	Z2	X3	Y3	Z3	X4	Y4	Z4	X5	Y5	Z5	X6	Y6	Z6	X7	Y7	Z7	X8	Y8	Z8	X9	Y9	Z9	X10	Y10	Z10	X11	Y11	Z11	X12	Y12	Z12	X13	Y13	Z13	X14	Y14	Z14	X15	Y15	Z15	X16	Y16	Z16	X17	Y17	Z17	X18	Y18	Z18	X19	Y19	Z19	X20	Y20	Z20	X21	Y21	Z21	X22	Y22	Z22	X23	Y23	Z23	X24	Y24	Z24	X25	Y25	Z25	X26	Y26	Z26	X27	Y27	Z27	X28	Y28	Z28	X29	Y29	Z29	X30	Y30	Z30	X31	Y31	Z31	X32	Y32	Z32	X33	Y33	Z33	X34	Y34	Z34	X35	Y35	Z35	X36	Y36	Z36	X37	Y37	Z37	X38	Y38	Z38	X39	Y39	Z39	X40	Y40	Z40	X41	Y41	Z41	X42	Y42	Z42	X43	Y43	Z43	X44	Y44	Z44	X45	Y45	Z45	X46	Y46	Z46	X47	Y47	Z47	X48	Y48	Z48	X49	Y49	Z49	X50	Y50	Z50	X51	Y51	Z51	X52	Y52	Z52	X53	Y53	Z53	X54	Y54	Z54	X55	Y55	Z55	

50	0.49	-745.1524047851562	994.4439697265625	849.6522216796875	-780.228759765625	989.5775146484375	677.257080078125	-747.2857666015625	1064.211303710938	749.9456176757812	-503.1619262695312	1240.246215820312	698.8226318359375	-763.830078125	1177.647827148438	745.6170654296875	-723.2911376953125	1421.893432617188	711.5716552734375	-567.7550659179688	1339.858032226562	699.56640625	-761.1053466796875	1287.88427734375	801.145263671875	-754.582275390625	1378.852416992188	611.3079833984375	-672.8890991210938	1383.212280273438	547.9290161132812	-691.3673095703125	1260.508056640625	482.5615539550781	-632.6165161132812	1065.861083984375	472.2301940917969	-686.8597412109375	1033.922729492188	530.3377075195312	-504.5378112792969	872.4541625976562	448.4700317382812	-584.087646484375	976.7986450195312	462.5301513671875	-376.3794555664062	744.5322265625	493.0162658691406	-458.5332336425781	797.08251953125	448.2099609375	-404.1349487304688	827.8403930664062	472.6983642578125	-631.5097045898438	1407.284423828125	859.995361328125	-630.4669189453125	1353.867065429688	929.9498291015625	-646.8585205078125	1093.6220703125	1002.607055664062	-682.0643310546875	1078.441284179688	913.77587890625	-560.638671875	860.5985717773438	975.6218872070312	-605.0357666015625	866.3976440429688	1047.991333007812	-626.6907348632812	1027.798706054688	1020.894958496094	-565.7094116210938	675.5865478515625	995.3858642578125	-588.9263305664062	753.9320678710938	1056.60205078125	-674.610107421875	1582.373779296875	780.1826782226562	-562.1220703125	1618.704345703125	602.9863891601562	-529.6044921875	1626.114868164062	689.388671875	-725.0546264648438	1560.447875976562	642.5543212890625	-733.04296875	940.201416015625	569.1972045898438	-622.823486328125	948.0033569335938	929.6919555664062	-523.371337890625	952.166259765625	833.5885620117188	-587.3771362304688	945.38623046875	589.4981689453125	-651.1986694335938	474.2738037109375	650.342041015625	-661.0487670898438	613.3802490234375	608.0022583007812	-761.0695190429688	50.21461486816406	735.1536865234375	-706.5631103515625	249.7823944091797	686.9852294921875	-552.8342895507812	40.51784896850586	796.8887329101562	-624.9961547851562	33.02696228027344	835.1871948242188	-638.5986328125	44.7813835144043	724.0758056640625	-806.9487915039062	45.63599395751953	794.9102783203125	-436.8589477539062	512.6288452148438	864.392578125	-512.4697875976562	759.1676635742188	904.5704956054688	-440.4039916992188	387.635986328125	869.5438842773438	-415.2572021484375	58.20709991455078	828.1826782226562	-483.8953857421875	58.5618782043457	816.0737915039062	-465.3902893066406	59.54315567016602	932.4240112304688	-632.716552734375	93.03002166748047	935.340087890625	-466.0472717285156	905.5969848632812	500.863525390625	-538.5706176757812	745.8556518554688	1006.771911621094	-564.2138061523438	86.46774291992188	957.5914306640625	nan	nan	nan	nan	nan	nan	
51	0.5	-735.2951049804688	994.1819458007812	850.2711181640625	-773.2072143554688	989.1929321289062	678.4949340820312	-739.8377685546875	1064.1611328125	749.7971801757812	-495.8490600585938	1239.696533203125	695.3959350585938	-756.1240844726562	1177.43017578125	744.8538818359375	-715.661865234375	1421.555419921875	710.2867431640625	-560.4302368164062	1339.259765625	696.8993530273438	-752.999755859375	1287.718627929688	800.1492309570312	-747.9221801757812	1378.624755859375	610.243408203125	-666.611083984375	1382.9560546875	546.27001953125	-684.9244995117188	1260.386840820312	480.8778076171875	-624.7294921875	1066.308471679688	470.9068603515625	-679.5133056640625	1033.250732421875	527.9227294921875	-492.3453369140625	876.6803588867188	447.7142944335938	-574.81591796875	978.647216796875	461.424560546875	-361.0757446289062	752.2734985351562	493.3102416992188	-443.9544372558594	802.7333984375	447.6646423339844	-390.8614501953125	834.84130859375	473.0868835449219	-622.5850830078125	1406.781860351562	857.8436889648438	-621.18505859375	1353.621459960938	927.7919921875	-640.16552734375	1094.144409179688	1001.425109863281	-675.7186889648438	1078.876831054688	912.740478515625	-556.4634399414062	860.1455078125	975.2235107421875	-600.2395629882812	866.7135009765625	1047.811157226562	-620.62255859375	1028.1533203125	1019.989013671875	-563.3262329101562	675.3621826171875	995.5733642578125	-585.188720703125	754.0331420898438	1056.717407226562	-666.0513916015625	1581.675659179688	779.1371459960938	-555.1439819335938	1618.408325195312	601.0286254882812	-521.7611083984375	1625.416748046875	687.1657104492188	-717.8176879882812	1560.357788085938	641.8629760742188	-727.95703125	939.5818481445312	569.6768798828125	-610.9288940429688	948.0970458984375	928.2420043945312	-514.048583984375	952.146484375	830.1961059570312	-581.934814453125	944.6853637695312	587.1853637695312	-648.9595947265625	473.7509765625	649.9654541015625	-657.9552612304688	612.8395385742188	607.7625732421875	-760.9449462890625	50.46792984008789	735.431884765625	-705.5057983398438	249.5791473388672	686.9923706054688	-552.8150024414062	40.41592788696289	796.8216552734375	-625.0114135742188	32.69674682617188	835.17919921875	-638.5704956054688	44.80864715576172	724.1168823242188	-806.93017578125	45.94770050048828	795.1838989257812	-425.7232055664062	513.2420043945312	858.6548461914062	-501.0768127441406	759.2846069335938	900.6672973632812	-423.5472106933594	388.2682800292969	862.6807861328125	-383.3602294921875	60.82143402099609	815.0509033203125	-452.2972106933594	57.88626480102539	805.152587890625	-429.9577026367188	58.39501953125	920.90576171875	-598.6422119140625	83.574462890625	929.8053588867188	-455.4732055664062	910.5234985351562	500.7886657714844	-535.420654296875	745.2760009765625	1006.467651367188	-529.0921020507812	80.1715087890625	949.7010498046875	nan	nan	nan	nan	nan	nan	
52	0.51	-725.3988647460938	993.7540893554688	850.7997436523438	-766.0475463867188	988.7005615234375	679.6819458007812	-732.3124389648438	1063.8974609375	749.6184692382812	-488.5333251953125	1238.964599609375	691.9494018554688	-748.3365478515625	1177.073608398438	744.1111450195312	-707.9386596679688	1421.089599609375	708.9700317382812	-553.0446166992188	1338.486328125	694.2044677734375	-744.8489379882812	1287.460815429688	799.1314086914062	-741.1726684570312	1378.258422851562	609.1658935546875	-660.2672119140625	1382.541870117188	544.5883178710938	-678.575439453125	1260.119140625	479.1668701171875	-617.1787109375	1066.568603515625	469.4798278808594	-672.4324951171875	1032.455444335938	525.5142822265625	-480.50927734375	880.8739624023438	446.9297180175781	-565.9192504882812	980.3623046875	460.2425537109375	-346.4156494140625	759.9581298828125	493.6632690429688	-429.8573913574219	808.4122314453125	447.1056213378906	-378.1576843261719	841.75146484375	473.5792541503906	-613.5697021484375	1406.140380859375	855.6551513671875	-611.8218994140625	1353.222290039062	925.59033203125	-633.3599853515625	1094.500244140625	1000.083129882812	-669.221435546875	1079.154541015625	911.5303955078125	-552.0905151367188	859.572509765625	974.7320556640625	-595.3192138671875	866.90478515625	1047.496459960938	-614.4486083984375	1028.351928710938	1018.931457519531	-560.6851806640625	675.0228271484375	995.7531127929688	-581.291259765625	754.0521850585938	1056.760131835938	-657.4933471679688	1580.788818359375	778.0406494140625	-548.1210327148438	1618.030517578125	599.0743408203125	-513.9151611328125	1624.62158203125	684.9478149414062	-710.5068359375	1560.08447265625	641.1070556640625	-722.6838989257812	938.8984985351562	570.1048583984375	-599.0693969726562	948.022705078125	926.8007202148438	-504.7614135742188	951.8972778320312	826.8182373046875	-576.3530883789062	943.8946533203125	584.8837280273438	-646.6349487304688	473.1796569824219	649.468994140625	-654.8013916015625	612.2596435546875	607.4115600585938	-760.84765625	50.70957565307617	735.691162109375	-704.4069213867188	249.3701019287109	686.9491577148438	-552.7822875976562	40.28045654296875	796.7243041992188	-625.0028686523438	32.43619155883789	835.1602172851562	-638.5473022460938	44.81827926635742	724.1551513671875	-806.897216796875	46.26701736450195	795.4285278320312	-414.9648742675781	513.5238647460938	853.2926025390625	-490.0314636230469	759.09521484375	896.91845703125	-407.1814880371094	388.8370666503906	855.7045288085938	-352.6062622070312	64.02207946777344	800.5819091796875	-421.6141052246094	57.98298645019531	792.8519287109375	-395.4937133789062	57.88079071044922	907.842041015625	-564.860107421875	75.02773284912109	922.6171875	-445.4067077636719	915.2832641601562	500.7673034667969	-532.0772705078125	744.5952758789062	1006.117553710938	-494.5553283691406	74.60515594482422	940.1696166992188	nan	nan	nan	nan	nan	nan	
53	0.52	-715.4857177734375	993.1555786132812	851.2072143554688	-758.7421875	988.0723876953125	680.7683715820312	-724.6862182617188	1063.41064453125	749.4019165039062	-481.2015686035156	1238.057983398438	688.4912109375	-740.4712524414062	1176.560913085938	743.378662109375	-700.1199951171875	1420.4873046875	707.6136474609375	-545.5960083007812	1337.548095703125	691.4889526367188	-736.6375732421875	1287.08642578125	798.0878295898438	-734.3291015625	1377.7509765625	608.069580078125	-653.8592529296875	1381.969116210938	542.8832397460938	-672.3296508789062	1259.685913085938	477.4459228515625	-609.9840087890625	1066.62158203125	467.9693298339844	-665.6287231445312	1031.552490234375	523.1669311523438	-469.0712280273438	884.9658813476562	446.0999755859375	-557.4091186523438	981.9095458984375	458.9826965332031	-332.4010009765625	767.5278930664062	494.0350646972656	-416.3106994628906	814.0242309570312	446.5240478515625	-366.0558471679688	848.4976806640625	474.091064453125	-604.4833374023438	1405.355102539062	853.4381103515625	-602.40673828125	1352.658447265625	923.35205078125	-626.4495239257812	1094.672607421875	998.579345703125	-662.55224609375	1079.249633789062	910.1339111328125	-547.477783203125	858.87109375	974.183837890625	-590.285400390625	866.9561157226562	1047.058715820312	-608.178466796875	1028.38232421875	1017.73046875	-557.7607421875	674.5267333984375	995.9114379882812	-577.2540893554688	753.9639892578125	1056.731079101562	-648.9268188476562	1579.722778320312	776.8886108398438	-541.051513671875	1617.561157226562	597.1152954101562	-506.0644836425781	1623.73046875	682.7244262695312	-703.1198120117188	1559.625	640.2870483398438	-717.2102661132812	938.1297607421875	570.4777221679688	-587.3440551757812	947.7774047851562	925.3515014648438	-495.5216979980469	951.4324340820312	823.4689331054688	-570.6253051757812	943.0084228515625	582.5917358398438	-644.232421875	472.5542602539062	648.84375	-651.5838012695312	611.6381225585938	606.929931640625	-760.7813720703125	50.92981338500977	735.9224853515625	-703.272216796875	249.1646423339844	686.8519287109375	-552.7093505859375	40.09486770629883	796.597412109375	-624.9651489257812	32.27357482910156	835.1287841796875	-638.5243530273438	44.8075065612793	724.1834716796875	-806.8507080078125	46.60440063476562	795.6468505859375	-404.51513671875	513.4953002929688	848.33447265625	-479.3345336914062	758.6381225585938	893.3639526367188	-391.3024291992188	389.3486938476562	848.6618041992188	-323.1419982910156	67.82600402832031	784.8657836914062	-392.0303039550781	58.89352798461914	779.26220703125	-362.1510314941406	58.00009536743164	893.3107299804688	-531.5631713867188	67.42881774902344	913.851806640625	-435.8276062011719	919.8317260742188	500.7345275878906	-528.5050659179688	743.8115234375	1005.769653320312	-460.7670593261719	69.80166625976562	929.0855102539062	nan	nan	nan	nan	nan	nan	
